<svg id="visual" viewBox="0 0 960 288" width="960" height="288" xmlns="http://www.w3.org/2000/svg" xmlns:xlink="http://www.w3.org/1999/xlink" version="1.1"><path d="M0 128L40 122.2C80 116.3 160 104.7 240 103.7C320 102.7 400 112.3 480 107C560 101.7 640 81.3 720 72.2C800 63 880 65 920 66L960 67L960 0L920 0C880 0 800 0 720 0C640 0 560 0 480 0C400 0 320 0 240 0C160 0 80 0 40 0L0 0Z" fill="#dfd9ff"></path><path d="M0 148L40 142.7C80 137.3 160 126.7 240 130C320 133.3 400 150.7 480 145C560 139.3 640 110.7 720 102C800 93.3 880 104.7 920 110.3L960 116L960 65L920 64C880 63 800 61 720 70.2C640 79.3 560 99.7 480 105C400 110.3 320 100.7 240 101.7C160 102.7 80 114.3 40 120.2L0 126Z" fill="#e7e2ff"></path><path d="M0 194L40 198.3C80 202.7 160 211.3 240 217.2C320 223 400 226 480 224C560 222 640 215 720 210.2C800 205.3 880 202.7 920 201.3L960 200L960 114L920 108.3C880 102.7 800 91.3 720 100C640 108.7 560 137.3 480 143C400 148.7 320 131.3 240 128C160 124.7 80 135.3 40 140.7L0 146Z" fill="#efecff"></path><path d="M0 229L40 232.3C80 235.7 160 242.3 240 248.5C320 254.7 400 260.3 480 260.3C560 260.3 640 254.7 720 249.3C800 244 880 239 920 236.5L960 234L960 198L920 199.3C880 200.7 800 203.3 720 208.2C640 213 560 220 480 222C400 224 320 221 240 215.2C160 209.3 80 200.7 40 196.3L0 192Z" fill="#f7f5ff"></path><path d="M0 289L40 289C80 289 160 289 240 289C320 289 400 289 480 289C560 289 640 289 720 289C800 289 880 289 920 289L960 289L960 232L920 234.5C880 237 800 242 720 247.3C640 252.7 560 258.3 480 258.3C400 258.3 320 252.7 240 246.5C160 240.3 80 233.7 40 230.3L0 227Z" fill="#ffffff" fill-opacity="0"></path></svg>
